<?xml version="1.0" encoding="UTF-8" standalone="no"?>
<!DOCTYPE svg PUBLIC "-//W3C//DTD SVG 1.1//EN" "http://www.w3.org/Graphics/SVG/1.1/DTD/svg11.dtd">
<svg version="1.1" xmlns="http://www.w3.org/2000/svg" xmlns:xlink="http://www.w3.org/1999/xlink" preserveAspectRatio="xMidYMid meet" viewBox="0 0 640 640" width="640" height="640"><defs><path d="M544.92 40.2L547.34 40.44L549.73 40.79L552.09 41.22L554.42 41.74L556.71 42.36L558.96 43.06L561.18 43.85L563.35 44.72L565.49 45.67L567.57 46.7L569.61 47.81L571.61 48.99L573.55 50.25L575.44 51.58L577.27 52.98L579.05 54.44L580.77 55.98L582.43 57.57L584.02 59.23L585.56 60.95L587.02 62.73L588.42 64.56L589.75 66.45L591.01 68.39L592.19 70.39L593.3 72.43L594.33 74.51L595.28 76.65L596.15 78.82L596.94 81.04L597.64 83.29L598.26 85.58L598.78 87.91L599.21 90.27L599.56 92.66L599.8 95.08L599.95 97.53L600 100L600 540L599.95 542.47L599.8 544.92L599.56 547.34L599.21 549.73L598.78 552.09L598.26 554.42L597.64 556.71L596.94 558.96L596.15 561.18L595.28 563.35L594.33 565.49L593.3 567.57L592.19 569.61L591.01 571.61L589.75 573.55L588.42 575.44L587.02 577.27L585.56 579.05L584.02 580.77L582.43 582.43L580.77 584.02L579.05 585.56L577.27 587.02L575.44 588.42L573.55 589.75L571.61 591.01L569.61 592.19L567.57 593.3L565.49 594.33L563.35 595.28L561.18 596.15L558.96 596.94L556.71 597.64L554.42 598.26L552.09 598.78L549.73 599.21L547.34 599.56L544.92 599.8L542.47 599.95L540 600L100 600L97.53 599.95L95.08 599.8L92.66 599.56L90.27 599.21L87.91 598.78L85.58 598.26L83.29 597.64L81.04 596.94L78.82 596.15L76.65 595.28L74.51 594.33L72.43 593.3L70.39 592.19L68.39 591.01L66.45 589.75L64.56 588.42L62.73 587.02L60.95 585.56L59.23 584.02L57.57 582.43L55.98 580.77L54.44 579.05L52.98 577.27L51.58 575.44L50.25 573.55L48.99 571.61L47.81 569.61L46.7 567.57L45.67 565.49L44.72 563.35L43.85 561.18L43.06 558.96L42.36 556.71L41.74 554.42L41.22 552.09L40.79 549.73L40.44 547.34L40.2 544.92L40.05 542.47L40 540L40 100L40.05 97.53L40.2 95.08L40.44 92.66L40.79 90.27L41.22 87.91L41.74 85.58L42.36 83.29L43.06 81.04L43.85 78.82L44.72 76.65L45.67 74.51L46.7 72.43L47.81 70.39L48.99 68.39L50.25 66.45L51.58 64.56L52.98 62.73L54.44 60.95L55.98 59.23L57.57 57.57L59.23 55.98L60.95 54.44L62.73 52.98L64.56 51.58L66.45 50.25L68.39 48.99L70.39 47.81L72.43 46.7L74.51 45.67L76.65 44.72L78.82 43.85L81.04 43.06L83.29 42.36L85.58 41.74L87.91 41.22L90.27 40.79L92.66 40.44L95.08 40.2L97.53 40.05L100 40L540 40L542.47 40.05L544.92 40.2ZM264.38 280.01L263.77 280.05L263.16 280.11L262.57 280.2L261.98 280.3L261.4 280.44L260.82 280.59L260.26 280.76L259.71 280.96L259.16 281.18L258.63 281.42L258.11 281.67L257.6 281.95L257.1 282.25L256.61 282.56L256.14 282.89L255.68 283.24L255.24 283.61L254.81 283.99L254.39 284.39L253.99 284.81L253.61 285.24L253.24 285.68L252.89 286.14L252.56 286.61L252.25 287.1L251.95 287.6L251.67 288.11L251.42 288.63L251.18 289.16L250.96 289.71L250.76 290.26L250.59 290.82L250.44 291.4L250.3 291.98L250.2 292.57L250.11 293.16L250.05 293.77L250.01 294.38L250 295L250 325L250.01 325.62L250.05 326.23L250.11 326.84L250.2 327.43L250.3 328.02L250.44 328.6L250.59 329.18L250.76 329.74L250.96 330.29L251.18 330.84L251.42 331.37L251.67 331.89L251.95 332.4L252.25 332.9L252.56 333.39L252.89 333.86L253.24 334.32L253.61 334.76L253.99 335.19L254.39 335.61L254.81 336.01L255.24 336.39L255.68 336.76L256.14 337.11L256.61 337.44L257.1 337.75L257.6 338.05L258.11 338.33L258.63 338.58L259.16 338.82L259.71 339.04L260.26 339.24L260.82 339.41L261.4 339.56L261.98 339.7L262.57 339.8L263.16 339.89L263.77 339.95L264.38 339.99L265 340L280 340L280 420L265 420L264.38 420.01L263.77 420.05L263.16 420.11L262.57 420.2L261.98 420.3L261.4 420.44L260.82 420.59L260.26 420.76L259.71 420.96L259.16 421.18L258.63 421.42L258.11 421.67L257.6 421.95L257.1 422.25L256.61 422.56L256.14 422.89L255.68 423.24L255.24 423.61L254.81 423.99L254.39 424.39L253.99 424.81L253.61 425.24L253.24 425.68L252.89 426.14L252.56 426.61L252.25 427.1L251.95 427.6L251.67 428.11L251.42 428.63L251.18 429.16L250.96 429.71L250.76 430.26L250.59 430.82L250.44 431.4L250.3 431.98L250.2 432.57L250.11 433.16L250.05 433.77L250.01 434.38L250 435L250 465L250.01 465.62L250.05 466.23L250.11 466.84L250.2 467.43L250.3 468.02L250.44 468.6L250.59 469.18L250.76 469.74L250.96 470.29L251.18 470.84L251.42 471.37L251.67 471.89L251.95 472.4L252.25 472.9L252.56 473.39L252.89 473.86L253.24 474.32L253.61 474.76L253.99 475.19L254.39 475.61L254.81 476.01L255.24 476.39L255.68 476.76L256.14 477.11L256.61 477.44L257.1 477.75L257.6 478.05L258.11 478.33L258.63 478.58L259.16 478.82L259.71 479.04L260.26 479.24L260.82 479.41L261.4 479.56L261.98 479.7L262.57 479.8L263.16 479.89L263.77 479.95L264.38 479.99L265 480L375 480L375.41 479.99L375.82 479.96L376.23 479.92L376.64 479.85L377.05 479.77L377.45 479.66L377.85 479.54L378.25 479.4L378.65 479.24L379.04 479.06L379.44 478.87L379.83 478.65L380.22 478.42L380.61 478.16L380.99 477.89L381.38 477.6L381.76 477.29L382.14 476.96L382.52 476.62L382.89 476.25L383.27 475.87L383.64 475.46L384.01 475.04L384.38 474.6L384.74 474.14L385.11 473.66L385.47 473.17L385.83 472.65L386.19 472.12L386.54 471.56L386.9 470.99L387.25 470.4L387.6 469.79L387.95 469.16L388.3 468.52L388.64 467.85L388.98 467.17L389.32 466.46L389.66 465.74L390 465L390 435L389.99 434.38L389.95 433.77L389.89 433.16L389.8 432.57L389.7 431.98L389.56 431.4L389.41 430.82L389.24 430.26L389.04 429.71L388.82 429.16L388.58 428.63L388.33 428.11L388.05 427.6L387.75 427.1L387.44 426.61L387.11 426.14L386.76 425.68L386.39 425.24L386.01 424.81L385.61 424.39L385.19 423.99L384.76 423.61L384.32 423.24L383.86 422.89L383.39 422.56L382.9 422.25L382.4 421.95L381.89 421.67L381.37 421.42L380.84 421.18L380.29 420.96L379.74 420.76L379.18 420.59L378.6 420.44L378.02 420.3L377.43 420.2L376.84 420.11L376.23 420.05L375.62 420.01L375 420L360 420L360 295L359.99 294.38L359.95 293.77L359.89 293.16L359.8 292.57L359.7 291.98L359.56 291.4L359.41 290.82L359.24 290.26L359.04 289.71L358.82 289.16L358.58 288.63L358.33 288.11L358.05 287.6L357.75 287.1L357.44 286.61L357.11 286.14L356.76 285.68L356.39 285.24L356.01 284.81L355.61 284.39L355.19 283.99L354.76 283.61L354.32 283.24L353.86 282.89L353.39 282.56L352.9 282.25L352.4 281.95L351.89 281.67L351.37 281.42L350.84 281.18L350.29 280.96L349.74 280.76L349.18 280.59L348.6 280.44L348.02 280.3L347.43 280.2L346.84 280.11L346.23 280.05L345.62 280.01L345 280L265 280L264.38 280.01ZM315.69 147.67L313.58 147.89L311.48 148.19L309.42 148.57L307.38 149.03L305.38 149.56L303.41 150.18L301.47 150.86L299.56 151.63L297.7 152.46L295.87 153.36L294.09 154.33L292.35 155.37L290.65 156.47L288.99 157.63L287.39 158.85L285.83 160.14L284.33 161.48L282.88 162.88L281.48 164.33L280.14 165.83L278.85 167.39L277.63 168.99L276.47 170.65L275.37 172.35L274.33 174.09L273.36 175.87L272.46 177.7L271.63 179.56L270.86 181.47L270.18 183.41L269.56 185.38L269.03 187.38L268.57 189.42L268.19 191.48L267.89 193.58L267.67 195.69L267.54 197.84L267.5 200L267.54 202.16L267.67 204.31L267.89 206.42L268.19 208.52L268.57 210.58L269.03 212.62L269.56 214.62L270.18 216.59L270.86 218.53L271.63 220.44L272.46 222.3L273.36 224.13L274.33 225.91L275.37 227.65L276.47 229.35L277.63 231.01L278.85 232.61L280.14 234.17L281.48 235.67L282.88 237.12L284.33 238.52L285.83 239.86L287.39 241.15L288.99 242.37L290.65 243.53L292.35 244.63L294.09 245.67L295.87 246.64L297.7 247.54L299.56 248.37L301.47 249.14L303.41 249.82L305.38 250.44L307.38 250.97L309.42 251.43L311.48 251.81L313.58 252.11L315.69 252.33L317.84 252.46L320 252.5L322.16 252.46L324.31 252.33L326.42 252.11L328.52 251.81L330.58 251.43L332.62 250.97L334.62 250.44L336.59 249.82L338.53 249.14L340.44 248.37L342.3 247.54L344.13 246.64L345.91 245.67L347.65 244.63L349.35 243.53L351.01 242.37L352.61 241.15L354.17 239.86L355.67 238.52L357.12 237.12L358.52 235.67L359.86 234.17L361.15 232.61L362.37 231.01L363.53 229.35L364.63 227.65L365.67 225.91L366.64 224.13L367.54 222.3L368.37 220.44L369.14 218.53L369.82 216.59L370.44 214.62L370.97 212.62L371.43 210.58L371.81 208.52L372.11 206.42L372.33 204.31L372.46 202.16L372.5 200L372.46 197.84L372.33 195.69L372.11 193.58L371.81 191.48L371.43 189.42L370.97 187.38L370.44 185.38L369.82 183.41L369.14 181.47L368.37 179.56L367.54 177.7L366.64 175.87L365.67 174.09L364.63 172.35L363.53 170.65L362.37 168.99L361.15 167.39L359.86 165.83L358.52 164.33L357.12 162.88L355.67 161.48L354.17 160.14L352.61 158.85L351.01 157.63L349.35 156.47L347.65 155.37L345.91 154.33L344.13 153.36L342.3 152.46L340.44 151.63L338.53 150.86L336.59 150.18L334.62 149.56L332.62 149.03L330.58 148.57L328.52 148.19L326.42 147.89L324.31 147.67L322.16 147.54L320 147.5L317.84 147.54L315.69 147.67Z" id="efSpPgEwz"></path><path d="" id="e14gyUbllv"></path><path d="M373.37 200.7C373.37 230.43 349.46 254.57 320 254.57C290.54 254.57 266.63 230.43 266.63 200.7C266.63 170.97 290.54 146.84 320 146.84C349.46 146.84 373.37 170.97 373.37 200.7Z" id="c1l9RSvIc"></path><path d="" id="o2MKr8oHs"></path><path d="M349 280.2L350.4 280.65L353.6 282.4L356.6 285.65L358.8 288.85L360 292.44L360 295.4L360 419.6L378 419.6L382.25 421.2L385.25 423.27L387.25 425.7L388.67 428.2L389.75 430.7L390.33 432.93L390.33 461.6L390.33 465.27L388.67 468.27L386.67 471.6L384.67 474.27L381.33 477.6L378 479.93L262.33 479.93L258.67 478.93L255 476.27L252 473.27L250.33 470.27L249.5 466.27L249.5 432.93L250.33 429.93L252 426.6L255 423.27L258.67 420.6L262.33 419.6L279.67 419.6L279.67 339.6L260.59 339.6L258 338.27L254.33 336.27L252 332.93L250.33 329.27L249.5 325.9L249.5 290.9L252 286.4L256 282.4L260.59 280.2L343 280.2L349 280.2Z" id="ae1NGRU7p"></path></defs><g><g><g><use xlink:href="#efSpPgEwz" opacity="1" fill="#d5b50e" fill-opacity="1"></use><g><use xlink:href="#efSpPgEwz" opacity="1" fill-opacity="0" stroke="#000000" stroke-width="1" stroke-opacity="0"></use></g></g><g><g><use xlink:href="#e14gyUbllv" opacity="1" fill-opacity="0" stroke="#000000" stroke-width="1" stroke-opacity="1"></use></g></g><g><use xlink:href="#c1l9RSvIc" opacity="1" fill="#ffffff" fill-opacity="1"></use></g><g><g><use xlink:href="#o2MKr8oHs" opacity="1" fill-opacity="0" stroke="#000000" stroke-width="1" stroke-opacity="1"></use></g></g><g><use xlink:href="#ae1NGRU7p" opacity="1" fill="#ffffff" fill-opacity="1"></use><g><use xlink:href="#ae1NGRU7p" opacity="1" fill-opacity="0" stroke="#ffffff" stroke-width="1" stroke-opacity="1"></use></g></g></g></g></svg>